<mxfile host="65bd71144e" compressed="false">
    <diagram id="86R6ZRfhnQo9sD8B5-7s" name="Page-1">
        <mxGraphModel dx="829" dy="313" grid="1" gridSize="10" guides="1" tooltips="1" connect="1" arrows="1" fold="1" page="1" pageScale="1" pageWidth="827" pageHeight="1169" background="#161923" math="0" shadow="0">
            <root>
                <mxCell id="0"/>
                <mxCell id="1" parent="0"/>
                <mxCell id="112" value="" style="rounded=0;whiteSpace=wrap;html=1;labelBackgroundColor=none;fontSize=14;fontColor=#333333;strokeColor=#FFFFFF;strokeWidth=2;fillColor=none;dashed=1;" parent="1" vertex="1">
                    <mxGeometry x="290" y="140" width="990" height="520" as="geometry"/>
                </mxCell>
                <mxCell id="ByCcfvI7zqT--OkzpkXo-116" value="&lt;i style=&quot;font-size: 14px&quot;&gt;CPU_BUS&lt;/i&gt;" style="text;html=1;strokeColor=none;fillColor=none;align=center;verticalAlign=middle;whiteSpace=wrap;rounded=0;fontFamily=Helvetica;fontSize=14;fontColor=#FFFFFF;" parent="1" vertex="1">
                    <mxGeometry x="190" y="180" width="79.68" height="40" as="geometry"/>
                </mxCell>
                <mxCell id="22" value="Modulation" style="rounded=0;whiteSpace=wrap;html=1;fontFamily=Helvetica;fontSize=14;fontColor=#333333;strokeColor=none;strokeWidth=2;fillColor=#f5f5f5;" parent="1" vertex="1">
                    <mxGeometry x="520" y="530" width="120" height="40" as="geometry"/>
                </mxCell>
                <mxCell id="126" style="edgeStyle=none;rounded=0;html=1;exitX=1;exitY=0.25;exitDx=0;exitDy=0;entryX=0;entryY=0.5;entryDx=0;entryDy=0;fontColor=#333333;strokeColor=#FFFFFF;strokeWidth=2;" parent="1" source="37" target="22" edge="1">
                    <mxGeometry relative="1" as="geometry"/>
                </mxCell>
                <mxCell id="37" value="STM&lt;br style=&quot;font-size: 14px;&quot;&gt;Operator" style="rounded=0;whiteSpace=wrap;html=1;fontFamily=Helvetica;fontSize=14;fontColor=#333333;strokeColor=none;strokeWidth=3;fillColor=#f5f5f5;" parent="1" vertex="1">
                    <mxGeometry x="320" y="520" width="120" height="120" as="geometry"/>
                </mxCell>
                <mxCell id="55" value="Memory" style="rounded=0;whiteSpace=wrap;html=1;fontFamily=Helvetica;fontSize=14;fontColor=#333333;strokeColor=none;strokeWidth=3;fillColor=#FFFFFF;gradientColor=none;" parent="1" vertex="1">
                    <mxGeometry x="560" y="160" width="440" height="80" as="geometry"/>
                </mxCell>
                <mxCell id="86" value="" style="shape=flexArrow;endArrow=classic;html=1;rounded=0;labelBackgroundColor=default;fontFamily=Helvetica;fontSize=14;fontColor=#000000;strokeColor=none;strokeWidth=3;jumpStyle=arc;fillColor=#f5f5f5;exitX=1;exitY=0.5;exitDx=0;exitDy=0;entryX=0;entryY=0.5;entryDx=0;entryDy=0;" parent="1" source="ByCcfvI7zqT--OkzpkXo-116" target="55" edge="1">
                    <mxGeometry width="50" height="50" relative="1" as="geometry">
                        <mxPoint x="463.67999999999984" y="797.5" as="sourcePoint"/>
                        <mxPoint x="540" y="300" as="targetPoint"/>
                        <Array as="points"/>
                    </mxGeometry>
                </mxCell>
                <mxCell id="116" value="&lt;span style=&quot;font-size: 14px&quot;&gt;Intenisty&lt;/span&gt;" style="text;html=1;strokeColor=none;fillColor=none;align=center;verticalAlign=middle;whiteSpace=wrap;rounded=0;fontFamily=Helvetica;fontSize=14;fontColor=#FFFFFF;strokeWidth=2;" parent="1" vertex="1">
                    <mxGeometry x="440" y="530" width="60" height="20" as="geometry"/>
                </mxCell>
                <mxCell id="129" value="" style="endArrow=none;html=1;rounded=1;labelBackgroundColor=default;fontFamily=Helvetica;fontSize=14;fontColor=#000000;strokeColor=#FFFFFF;strokeWidth=2;shape=connector;fillColor=#f5f5f5;" parent="1" edge="1">
                    <mxGeometry width="50" height="50" relative="1" as="geometry">
                        <mxPoint x="489.6800000000003" y="560" as="sourcePoint"/>
                        <mxPoint x="509.6800000000003" y="540" as="targetPoint"/>
                    </mxGeometry>
                </mxCell>
                <mxCell id="140" value="Silencer" style="rounded=0;whiteSpace=wrap;html=1;fontFamily=Helvetica;fontSize=14;fontColor=#333333;strokeColor=none;strokeWidth=2;fillColor=#f5f5f5;" parent="1" vertex="1">
                    <mxGeometry x="720" y="520" width="120" height="120" as="geometry"/>
                </mxCell>
                <mxCell id="141" value="Pulse Width Encoder" style="rounded=0;whiteSpace=wrap;html=1;fontFamily=Helvetica;fontSize=14;fontColor=#333333;strokeColor=none;strokeWidth=2;fillColor=#f5f5f5;" parent="1" vertex="1">
                    <mxGeometry x="920" y="530" width="120" height="40" as="geometry"/>
                </mxCell>
                <mxCell id="142" value="PWM" style="rounded=0;whiteSpace=wrap;html=1;fontFamily=Helvetica;fontSize=14;fontColor=#333333;strokeColor=none;strokeWidth=3;fillColor=#f5f5f5;" parent="1" vertex="1">
                    <mxGeometry x="1121" y="520" width="120" height="120" as="geometry"/>
                </mxCell>
                <mxCell id="150" style="edgeStyle=none;rounded=0;html=1;exitX=1;exitY=0.75;exitDx=0;exitDy=0;entryX=0;entryY=0.5;entryDx=0;entryDy=0;fontColor=#333333;strokeColor=#FFFFFF;strokeWidth=2;" parent="1" edge="1" source="37">
                    <mxGeometry relative="1" as="geometry">
                        <mxPoint x="640" y="610" as="sourcePoint"/>
                        <mxPoint x="720" y="610" as="targetPoint"/>
                    </mxGeometry>
                </mxCell>
                <mxCell id="151" style="edgeStyle=none;rounded=0;html=1;exitX=1;exitY=0.25;exitDx=0;exitDy=0;entryX=0;entryY=0.5;entryDx=0;entryDy=0;fontColor=#333333;strokeColor=#FFFFFF;strokeWidth=2;" parent="1" edge="1">
                    <mxGeometry relative="1" as="geometry">
                        <mxPoint x="640" y="550" as="sourcePoint"/>
                        <mxPoint x="720" y="550" as="targetPoint"/>
                    </mxGeometry>
                </mxCell>
                <mxCell id="152" value="&lt;span style=&quot;font-size: 14px&quot;&gt;Intenisty&lt;/span&gt;" style="text;html=1;strokeColor=none;fillColor=none;align=center;verticalAlign=middle;whiteSpace=wrap;rounded=0;fontFamily=Helvetica;fontSize=14;fontColor=#FFFFFF;strokeWidth=2;" parent="1" vertex="1">
                    <mxGeometry x="640" y="530" width="60" height="20" as="geometry"/>
                </mxCell>
                <mxCell id="153" value="&lt;span style=&quot;font-size: 14px&quot;&gt;Phase&lt;/span&gt;" style="text;html=1;strokeColor=none;fillColor=none;align=center;verticalAlign=middle;whiteSpace=wrap;rounded=0;fontFamily=Helvetica;fontSize=14;fontColor=#FFFFFF;strokeWidth=2;" parent="1" vertex="1">
                    <mxGeometry x="640" y="590" width="60" height="20" as="geometry"/>
                </mxCell>
                <mxCell id="154" value="" style="endArrow=none;html=1;rounded=1;labelBackgroundColor=default;fontFamily=Helvetica;fontSize=14;fontColor=#000000;strokeColor=#FFFFFF;strokeWidth=2;shape=connector;fillColor=#f5f5f5;" parent="1" edge="1">
                    <mxGeometry width="50" height="50" relative="1" as="geometry">
                        <mxPoint x="689.6800000000003" y="620" as="sourcePoint"/>
                        <mxPoint x="709.6800000000003" y="600" as="targetPoint"/>
                    </mxGeometry>
                </mxCell>
                <mxCell id="155" value="" style="endArrow=none;html=1;rounded=1;labelBackgroundColor=default;fontFamily=Helvetica;fontSize=14;fontColor=#000000;strokeColor=#FFFFFF;strokeWidth=2;shape=connector;fillColor=#f5f5f5;" parent="1" edge="1">
                    <mxGeometry width="50" height="50" relative="1" as="geometry">
                        <mxPoint x="689.6800000000003" y="560" as="sourcePoint"/>
                        <mxPoint x="709.6800000000003" y="540" as="targetPoint"/>
                    </mxGeometry>
                </mxCell>
                <mxCell id="157" style="edgeStyle=none;rounded=0;html=1;exitX=1;exitY=0.25;exitDx=0;exitDy=0;entryX=0;entryY=0.5;entryDx=0;entryDy=0;fontColor=#333333;strokeColor=#FFFFFF;strokeWidth=2;" parent="1" edge="1">
                    <mxGeometry relative="1" as="geometry">
                        <mxPoint x="840" y="550" as="sourcePoint"/>
                        <mxPoint x="920" y="550" as="targetPoint"/>
                    </mxGeometry>
                </mxCell>
                <mxCell id="158" value="&lt;span style=&quot;font-size: 14px&quot;&gt;Intenisty&lt;/span&gt;" style="text;html=1;strokeColor=none;fillColor=none;align=center;verticalAlign=middle;whiteSpace=wrap;rounded=0;fontFamily=Helvetica;fontSize=14;fontColor=#FFFFFF;strokeWidth=2;" parent="1" vertex="1">
                    <mxGeometry x="840" y="530" width="60" height="20" as="geometry"/>
                </mxCell>
                <mxCell id="161" value="" style="endArrow=none;html=1;rounded=1;labelBackgroundColor=default;fontFamily=Helvetica;fontSize=14;fontColor=#000000;strokeColor=#FFFFFF;strokeWidth=2;shape=connector;fillColor=#f5f5f5;" parent="1" edge="1">
                    <mxGeometry width="50" height="50" relative="1" as="geometry">
                        <mxPoint x="889.6800000000003" y="560" as="sourcePoint"/>
                        <mxPoint x="909.6800000000003" y="540" as="targetPoint"/>
                    </mxGeometry>
                </mxCell>
                <mxCell id="162" style="edgeStyle=none;rounded=0;html=1;exitX=1;exitY=0.75;exitDx=0;exitDy=0;entryX=0;entryY=0.5;entryDx=0;entryDy=0;fontColor=#333333;strokeColor=#FFFFFF;strokeWidth=2;" parent="1" source="140" edge="1">
                    <mxGeometry relative="1" as="geometry">
                        <mxPoint x="1040" y="610" as="sourcePoint"/>
                        <mxPoint x="1120" y="610" as="targetPoint"/>
                    </mxGeometry>
                </mxCell>
                <mxCell id="163" style="edgeStyle=none;rounded=0;html=1;exitX=1;exitY=0.25;exitDx=0;exitDy=0;entryX=0;entryY=0.5;entryDx=0;entryDy=0;fontColor=#333333;strokeColor=#FFFFFF;strokeWidth=2;" parent="1" edge="1">
                    <mxGeometry relative="1" as="geometry">
                        <mxPoint x="1040" y="550" as="sourcePoint"/>
                        <mxPoint x="1120" y="550" as="targetPoint"/>
                    </mxGeometry>
                </mxCell>
                <mxCell id="164" value="&lt;span style=&quot;font-size: 14px&quot;&gt;Pulse Width&lt;/span&gt;" style="text;html=1;strokeColor=none;fillColor=none;align=center;verticalAlign=middle;whiteSpace=wrap;rounded=0;fontFamily=Helvetica;fontSize=14;fontColor=#FFFFFF;strokeWidth=2;" parent="1" vertex="1">
                    <mxGeometry x="1040" y="510" width="60" height="40" as="geometry"/>
                </mxCell>
                <mxCell id="165" value="&lt;span style=&quot;font-size: 14px&quot;&gt;Phase&lt;/span&gt;" style="text;html=1;strokeColor=none;fillColor=none;align=center;verticalAlign=middle;whiteSpace=wrap;rounded=0;fontFamily=Helvetica;fontSize=14;fontColor=#FFFFFF;strokeWidth=2;" parent="1" vertex="1">
                    <mxGeometry x="1040" y="590" width="60" height="20" as="geometry"/>
                </mxCell>
                <mxCell id="166" value="" style="endArrow=none;html=1;rounded=1;labelBackgroundColor=default;fontFamily=Helvetica;fontSize=14;fontColor=#000000;strokeColor=#FFFFFF;strokeWidth=2;shape=connector;fillColor=#f5f5f5;" parent="1" edge="1">
                    <mxGeometry width="50" height="50" relative="1" as="geometry">
                        <mxPoint x="1089.6800000000003" y="620" as="sourcePoint"/>
                        <mxPoint x="1109.6800000000003" y="600" as="targetPoint"/>
                    </mxGeometry>
                </mxCell>
                <mxCell id="167" value="" style="endArrow=none;html=1;rounded=1;labelBackgroundColor=default;fontFamily=Helvetica;fontSize=14;fontColor=#000000;strokeColor=#FFFFFF;strokeWidth=2;shape=connector;fillColor=#f5f5f5;" parent="1" edge="1">
                    <mxGeometry width="50" height="50" relative="1" as="geometry">
                        <mxPoint x="1081.8200000000004" y="560" as="sourcePoint"/>
                        <mxPoint x="1101.8200000000004" y="540" as="targetPoint"/>
                    </mxGeometry>
                </mxCell>
                <mxCell id="168" style="edgeStyle=none;rounded=0;html=1;exitX=1;exitY=0.75;exitDx=0;exitDy=0;entryX=0;entryY=0.5;entryDx=0;entryDy=0;fontColor=#333333;strokeColor=#FFFFFF;strokeWidth=2;" parent="1" edge="1">
                    <mxGeometry relative="1" as="geometry">
                        <mxPoint x="1241" y="580" as="sourcePoint"/>
                        <mxPoint x="1321" y="580" as="targetPoint"/>
                    </mxGeometry>
                </mxCell>
                <mxCell id="169" value="" style="endArrow=none;html=1;rounded=1;labelBackgroundColor=default;fontFamily=Helvetica;fontSize=14;fontColor=#000000;strokeColor=#FFFFFF;strokeWidth=2;shape=connector;fillColor=#f5f5f5;" parent="1" edge="1">
                    <mxGeometry width="50" height="50" relative="1" as="geometry">
                        <mxPoint x="1290.6800000000003" y="590" as="sourcePoint"/>
                        <mxPoint x="1310.6800000000003" y="570" as="targetPoint"/>
                    </mxGeometry>
                </mxCell>
                <mxCell id="170" value="&lt;i style=&quot;font-size: 14px&quot;&gt;PWM_OUT&lt;/i&gt;" style="text;html=1;strokeColor=none;fillColor=none;align=center;verticalAlign=middle;whiteSpace=wrap;rounded=0;fontFamily=Helvetica;fontSize=14;fontColor=#FFFFFF;" parent="1" vertex="1">
                    <mxGeometry x="1320" y="560" width="79.68" height="40" as="geometry"/>
                </mxCell>
                <mxCell id="173" value="Controller" style="rounded=0;whiteSpace=wrap;html=1;fontFamily=Helvetica;fontSize=14;fontColor=#333333;strokeColor=none;strokeWidth=3;fillColor=#f5f5f5;" parent="1" vertex="1">
                    <mxGeometry x="720" y="320" width="120" height="120" as="geometry"/>
                </mxCell>
                <mxCell id="175" style="edgeStyle=none;rounded=0;html=1;exitX=0.5;exitY=1;exitDx=0;exitDy=0;entryX=0.5;entryY=0;entryDx=0;entryDy=0;strokeColor=#FFFFFF;strokeWidth=2;fontColor=#333333;" parent="1" source="174" target="37" edge="1">
                    <mxGeometry relative="1" as="geometry"/>
                </mxCell>
                <mxCell id="176" style="edgeStyle=none;rounded=0;html=1;exitX=0.5;exitY=1;exitDx=0;exitDy=0;entryX=0.5;entryY=0;entryDx=0;entryDy=0;strokeColor=#FFFFFF;strokeWidth=2;fontColor=#333333;" parent="1" source="174" target="22" edge="1">
                    <mxGeometry relative="1" as="geometry">
                        <Array as="points">
                            <mxPoint x="380" y="480"/>
                            <mxPoint x="580" y="480"/>
                        </Array>
                    </mxGeometry>
                </mxCell>
                <mxCell id="178" style="edgeStyle=none;rounded=0;html=1;exitX=0.5;exitY=1;exitDx=0;exitDy=0;strokeColor=#FFFFFF;strokeWidth=2;fontColor=#333333;" parent="1" source="174" target="177" edge="1">
                    <mxGeometry relative="1" as="geometry">
                        <Array as="points">
                            <mxPoint x="380" y="480"/>
                            <mxPoint x="1080" y="480"/>
                            <mxPoint x="1080" y="380"/>
                        </Array>
                    </mxGeometry>
                </mxCell>
                <mxCell id="174" value="Synchronizer" style="rounded=0;whiteSpace=wrap;html=1;fontFamily=Helvetica;fontSize=14;fontColor=#333333;strokeColor=none;strokeWidth=3;fillColor=#f5f5f5;" parent="1" vertex="1">
                    <mxGeometry x="320" y="320" width="120" height="120" as="geometry"/>
                </mxCell>
                <mxCell id="179" style="edgeStyle=none;rounded=0;html=1;exitX=0.5;exitY=1;exitDx=0;exitDy=0;entryX=0.5;entryY=0;entryDx=0;entryDy=0;strokeColor=#FFFFFF;strokeWidth=2;fontColor=#333333;" parent="1" source="177" target="142" edge="1">
                    <mxGeometry relative="1" as="geometry"/>
                </mxCell>
                <mxCell id="177" value="Time Count Generator" style="rounded=0;whiteSpace=wrap;html=1;fontFamily=Helvetica;fontSize=14;fontColor=#333333;strokeColor=none;strokeWidth=3;fillColor=#f5f5f5;" parent="1" vertex="1">
                    <mxGeometry x="1121" y="320" width="120" height="120" as="geometry"/>
                </mxCell>
                <mxCell id="180" value="&lt;span style=&quot;font-size: 14px&quot;&gt;SYS_TIME&lt;/span&gt;" style="text;html=1;strokeColor=none;fillColor=none;align=center;verticalAlign=middle;whiteSpace=wrap;rounded=0;fontFamily=Helvetica;fontSize=14;fontColor=#FFFFFF;strokeWidth=2;" parent="1" vertex="1">
                    <mxGeometry x="300" y="440" width="76" height="30" as="geometry"/>
                </mxCell>
                <mxCell id="181" value="" style="endArrow=none;html=1;rounded=1;labelBackgroundColor=default;fontFamily=Helvetica;fontSize=14;fontColor=#000000;strokeColor=#FFFFFF;strokeWidth=2;shape=connector;fillColor=#f5f5f5;" parent="1" edge="1">
                    <mxGeometry width="50" height="50" relative="1" as="geometry">
                        <mxPoint x="370.0000000000003" y="510" as="sourcePoint"/>
                        <mxPoint x="390.0000000000003" y="490" as="targetPoint"/>
                    </mxGeometry>
                </mxCell>
                <mxCell id="182" value="TIME_CNT" style="text;html=1;strokeColor=none;fillColor=none;align=center;verticalAlign=middle;whiteSpace=wrap;rounded=0;fontFamily=Helvetica;fontSize=14;fontColor=#FFFFFF;strokeWidth=2;" parent="1" vertex="1">
                    <mxGeometry x="1190" y="470" width="76" height="20" as="geometry"/>
                </mxCell>
                <mxCell id="183" value="" style="endArrow=none;html=1;rounded=1;labelBackgroundColor=default;fontFamily=Helvetica;fontSize=14;fontColor=#000000;strokeColor=#FFFFFF;strokeWidth=2;shape=connector;fillColor=#f5f5f5;" parent="1" edge="1">
                    <mxGeometry width="50" height="50" relative="1" as="geometry">
                        <mxPoint x="1171.0000000000005" y="510" as="sourcePoint"/>
                        <mxPoint x="1191.0000000000005" y="490" as="targetPoint"/>
                    </mxGeometry>
                </mxCell>
                <mxCell id="187" value="" style="endArrow=none;html=1;rounded=1;labelBackgroundColor=default;fontFamily=Helvetica;fontSize=14;fontColor=#000000;strokeColor=#FFFFFF;strokeWidth=2;shape=connector;fillColor=#f5f5f5;" parent="1" edge="1">
                    <mxGeometry width="50" height="50" relative="1" as="geometry">
                        <mxPoint x="570.0000000000005" y="520" as="sourcePoint"/>
                        <mxPoint x="590.0000000000005" y="500" as="targetPoint"/>
                    </mxGeometry>
                </mxCell>
                <mxCell id="188" value="" style="endArrow=none;html=1;rounded=1;labelBackgroundColor=default;fontFamily=Helvetica;fontSize=14;fontColor=#000000;strokeColor=#FFFFFF;strokeWidth=2;shape=connector;fillColor=#f5f5f5;" parent="1" edge="1">
                    <mxGeometry width="50" height="50" relative="1" as="geometry">
                        <mxPoint x="1090.0000000000005" y="390" as="sourcePoint"/>
                        <mxPoint x="1110.0000000000005" y="370" as="targetPoint"/>
                    </mxGeometry>
                </mxCell>
                <mxCell id="192" value="" style="shape=flexArrow;endArrow=classic;html=1;rounded=0;labelBackgroundColor=default;fontFamily=Helvetica;fontSize=14;fontColor=#000000;strokeColor=default;strokeWidth=3;jumpStyle=arc;fillColor=#f5f5f5;exitX=0.5;exitY=1;exitDx=0;exitDy=0;entryX=0.5;entryY=0;entryDx=0;entryDy=0;startArrow=block;" parent="1" source="55" target="173" edge="1">
                    <mxGeometry width="50" height="50" relative="1" as="geometry">
                        <mxPoint x="369.99999999999983" y="300" as="sourcePoint"/>
                        <mxPoint x="770.3200000000004" y="300" as="targetPoint"/>
                        <Array as="points"/>
                    </mxGeometry>
                </mxCell>
            </root>
        </mxGraphModel>
    </diagram>
</mxfile>